<svg width="33" height="10" viewBox="0 0 33 10" fill="none" xmlns="http://www.w3.org/2000/svg">
<path id="Vector (Stroke)" fill-rule="evenodd" clip-rule="evenodd" d="M32.3234 5C32.3234 5.16285 32.2587 5.31903 32.1436 5.43419L27.7576 9.82015C27.5178 10.0599 27.129 10.0599 26.8892 9.82015C26.6494 9.58036 26.6494 9.19157 26.8892 8.95178L30.227 5.61404H0.937521C0.598399 5.61404 0.323486 5.33912 0.323486 5C0.323486 4.66088 0.598399 4.38596 0.937522 4.38596H30.227L26.8892 1.04822C26.6494 0.808428 26.6494 0.419642 26.8892 0.179847C27.129 -0.0599489 27.5178 -0.0599489 27.7576 0.179847L32.1436 4.56581C32.2587 4.68097 32.3234 4.83715 32.3234 5Z" fill="#131313"/>
</svg>
