<svg width="24" height="24" viewBox="0 0 24 24" fill="none" xmlns="http://www.w3.org/2000/svg">
<path d="M13.0896 1.39925C13.8632 1.39628 14.6368 1.40406 15.4103 1.42258L15.6159 1.43C15.8534 1.43848 16.0877 1.44908 16.3708 1.4618C17.4988 1.51481 18.2685 1.69292 18.9438 1.95478C19.6435 2.22406 20.233 2.58876 20.8224 3.17821C21.3614 3.70787 21.7785 4.34857 22.0448 5.05576C22.3066 5.73108 22.4847 6.50182 22.5377 7.62984C22.5505 7.91184 22.5611 8.1472 22.5695 8.38467L22.5759 8.59035C22.5947 9.36341 22.6029 10.1367 22.6003 10.91L22.6014 11.7009L22.6014 13.0897C22.604 13.8633 22.5958 14.637 22.577 15.4104L22.5706 15.6161C22.5621 15.8535 22.5515 16.0878 22.5388 16.3709C22.4858 17.4989 22.3056 18.2686 22.0448 18.9439C21.7794 19.6518 21.3621 20.2931 20.8224 20.8225C20.2923 21.3614 19.6512 21.7785 18.9438 22.0449C18.2685 22.3067 17.4988 22.4849 16.3708 22.5379C16.0877 22.5506 15.8534 22.5612 15.6159 22.5697L15.4103 22.576C14.6368 22.5949 13.8632 22.603 13.0896 22.6004L12.2987 22.6015H10.9109C10.1373 22.6041 9.36364 22.596 8.59023 22.5771L8.38455 22.5707C8.13288 22.5616 7.88126 22.551 7.62972 22.5389C6.5017 22.4859 5.73202 22.3057 5.05564 22.0449C4.34817 21.7792 3.70736 21.362 3.17809 20.8225C2.63851 20.2927 2.221 19.6516 1.95466 18.9439C1.6928 18.2686 1.51469 17.4989 1.46168 16.3709C1.44988 16.1193 1.43927 15.8677 1.42988 15.6161L1.42458 15.4104C1.40503 14.637 1.3962 13.8633 1.39807 13.0897L1.39807 10.91C1.39511 10.1367 1.40289 9.36341 1.4214 8.59035L1.42882 8.38467C1.4373 8.1472 1.4479 7.91184 1.46062 7.62984C1.51363 6.50076 1.69174 5.73214 1.9536 5.05576C2.22009 4.34823 2.63843 3.7077 3.17915 3.17927C3.70806 2.63938 4.34847 2.22149 5.05564 1.95478C5.73202 1.69292 6.50064 1.51481 7.62972 1.4618L8.38455 1.43L8.59023 1.4247C9.36328 1.40516 10.1366 1.39633 10.9099 1.39819L13.0896 1.39925ZM11.9997 6.70007C11.2974 6.69014 10.6 6.8199 9.94827 7.0818C9.2965 7.34371 8.70329 7.73254 8.2031 8.22571C7.70291 8.71887 7.30573 9.30653 7.03463 9.95453C6.76354 10.6025 6.62393 11.2979 6.62393 12.0004C6.62393 12.7028 6.76354 13.3982 7.03463 14.0462C7.30573 14.6942 7.70291 15.2819 8.2031 15.775C8.70329 16.2682 9.2965 16.657 9.94827 16.9189C10.6 17.1808 11.2974 17.3106 11.9997 17.3007C13.4056 17.3007 14.7539 16.7422 15.748 15.7481C16.7421 14.754 17.3005 13.4057 17.3005 11.9998C17.3005 10.594 16.7421 9.24568 15.748 8.25159C14.7539 7.25749 13.4056 6.70007 11.9997 6.70007ZM11.9997 8.8204C12.4222 8.81262 12.842 8.8891 13.2346 9.04538C13.6272 9.20165 13.9847 9.4346 14.2863 9.7306C14.5878 10.0266 14.8274 10.3797 14.9909 10.7693C15.1545 11.159 15.2387 11.5773 15.2388 11.9998C15.2389 12.4224 15.1547 12.8407 14.9913 13.2304C14.8279 13.6201 14.5885 13.9733 14.287 14.2694C13.9856 14.5655 13.6281 14.7985 13.2356 14.9549C12.843 15.1113 12.4233 15.188 12.0008 15.1803C11.1573 15.1803 10.3483 14.8452 9.75183 14.2488C9.15537 13.6523 8.82028 12.8434 8.82028 11.9998C8.82028 11.1563 9.15537 10.3473 9.75183 9.75089C10.3483 9.15443 11.1573 8.81934 12.0008 8.81934L11.9997 8.8204ZM17.5656 5.10983C17.2236 5.12352 16.9001 5.26901 16.663 5.51584C16.4258 5.76267 16.2934 6.09168 16.2934 6.43397C16.2934 6.77626 16.4258 7.10528 16.663 7.3521C16.9001 7.59893 17.2236 7.74443 17.5656 7.75812C17.917 7.75812 18.2541 7.6185 18.5026 7.36997C18.7512 7.12145 18.8908 6.78438 18.8908 6.43291C18.8908 6.08145 18.7512 5.74438 18.5026 5.49585C18.2541 5.24733 17.917 5.10771 17.5656 5.10771V5.10983Z" fill="#131313"/>
</svg>
