<svg width="32" height="32" viewBox="0 0 32 32" fill="none" xmlns="http://www.w3.org/2000/svg">
<g id="icon/menu">
<path id="Union" fill-rule="evenodd" clip-rule="evenodd" d="M7.20973 23.1196C6.91683 23.4125 6.93266 23.9032 7.24508 24.2156C7.5575 24.5281 8.0482 24.5439 8.3411 24.251L15.7303 16.8618L23.1196 24.2511C23.4125 24.544 23.9032 24.5282 24.2156 24.2158C24.5281 23.9033 24.5439 23.4126 24.251 23.1197L16.8617 15.7304L24.251 8.34109C24.5439 8.0482 24.5281 7.5575 24.2156 7.24508C23.9032 6.93266 23.4125 6.91683 23.1196 7.20972L15.7303 14.599L8.34109 7.20984C8.0482 6.91695 7.5575 6.93278 7.24508 7.2452C6.93266 7.55762 6.91683 8.04832 7.20972 8.34121L14.5989 15.7304L7.20973 23.1196Z" fill="white"/>
</g>
</svg>
