<svg width="20" height="20" viewBox="0 0 20 20" fill="none" xmlns="http://www.w3.org/2000/svg">
<path d="M10.9082 1.16613C11.5529 1.16365 12.1976 1.17013 12.8421 1.18556L13.0135 1.19175C13.2114 1.19881 13.4067 1.20765 13.6426 1.21825C14.5826 1.26242 15.224 1.41085 15.7867 1.62906C16.3698 1.85347 16.861 2.15738 17.3522 2.64859C17.8014 3.08998 18.149 3.62389 18.3709 4.21321C18.5891 4.77598 18.7375 5.41827 18.7817 6.35828C18.7923 6.59328 18.8011 6.78941 18.8082 6.98731L18.8135 7.1587C18.8292 7.80292 18.836 8.44733 18.8338 9.09174L18.8347 9.7508V10.9081C18.8369 11.5529 18.8301 12.1976 18.8144 12.8421L18.8091 13.0135C18.802 13.2114 18.7932 13.4066 18.7826 13.6425C18.7384 14.5825 18.5882 15.2239 18.3709 15.7867C18.1497 16.3766 17.802 16.911 17.3522 17.3522C16.9105 17.8013 16.3763 18.1489 15.7867 18.3708C15.224 18.589 14.5826 18.7375 13.6426 18.7816C13.4067 18.7922 13.2114 18.8011 13.0135 18.8081L12.8421 18.8134C12.1976 18.8291 11.5529 18.8359 10.9082 18.8338L10.2491 18.8346H9.09268C8.44798 18.8368 7.80328 18.83 7.15877 18.8143L6.98737 18.809C6.77765 18.8014 6.56796 18.7926 6.35834 18.7825C5.41833 18.7383 4.77693 18.5882 4.21328 18.3708C3.62372 18.1494 3.08971 17.8017 2.64865 17.3522C2.199 16.9107 1.85108 16.3764 1.62913 15.7867C1.41091 15.2239 1.26249 14.5825 1.21831 13.6425C1.20847 13.4329 1.19964 13.2232 1.19181 13.0135L1.18739 12.8421C1.1711 12.1976 1.16374 11.5529 1.1653 10.9081L1.1653 9.09174C1.16284 8.44733 1.16932 7.80293 1.18474 7.1587L1.19093 6.98731C1.19799 6.78941 1.20683 6.59328 1.21743 6.35828C1.2616 5.41738 1.41003 4.77687 1.62824 4.21321C1.85032 3.6236 2.19893 3.08983 2.64953 2.64947C3.09029 2.19957 3.62397 1.85132 4.21328 1.62906C4.77693 1.41085 5.41745 1.26242 6.35834 1.21825L6.98737 1.19175L7.15877 1.18733C7.80298 1.17105 8.44738 1.16369 9.0918 1.16524L10.9082 1.16613ZM10 5.58348C9.41471 5.5752 8.83361 5.68333 8.29047 5.90159C7.74733 6.11984 7.25298 6.44387 6.83616 6.85484C6.41934 7.26581 6.08835 7.75552 5.86244 8.29552C5.63652 8.83552 5.52019 9.41503 5.52019 10.0004C5.52019 10.5857 5.63652 11.1653 5.86244 11.7052C6.08835 12.2452 6.41934 12.735 6.83616 13.1459C7.25298 13.5569 7.74733 13.8809 8.29047 14.0992C8.83361 14.3174 9.41471 14.4256 10 14.4173C11.1716 14.4173 12.2951 13.9519 13.1235 13.1235C13.952 12.2951 14.4174 11.1715 14.4174 9.99994C14.4174 8.82839 13.952 7.70482 13.1235 6.8764C12.2951 6.04799 11.1716 5.58348 10 5.58348ZM10 7.35042C10.3521 7.34393 10.7019 7.40766 11.0291 7.53789C11.3562 7.66813 11.6542 7.86225 11.9055 8.10891C12.1568 8.35558 12.3564 8.64985 12.4927 8.97454C12.629 9.29922 12.6992 9.64781 12.6992 9.99993C12.6993 10.3521 12.6292 10.7007 12.493 11.0254C12.3568 11.3501 12.1573 11.6445 11.9061 11.8912C11.6549 12.138 11.357 12.3322 11.0299 12.4625C10.7028 12.5929 10.353 12.6567 10.0009 12.6504C9.29796 12.6504 8.62381 12.3711 8.12677 11.8741C7.62972 11.377 7.35048 10.7029 7.35048 9.99994C7.35048 9.29701 7.62972 8.62287 8.12677 8.12582C8.62381 7.62877 9.29796 7.34953 10.0009 7.34953L10 7.35042ZM14.6382 4.25827C14.3532 4.26968 14.0837 4.39092 13.886 4.59661C13.6884 4.8023 13.578 5.07648 13.578 5.36172C13.578 5.64697 13.6884 5.92115 13.886 6.12684C14.0837 6.33253 14.3532 6.45377 14.6382 6.46518C14.9311 6.46518 15.212 6.34883 15.4191 6.14173C15.6262 5.93462 15.7426 5.65373 15.7426 5.36084C15.7426 5.06795 15.6262 4.78706 15.4191 4.57996C15.212 4.37285 14.9311 4.2565 14.6382 4.2565V4.25827Z" fill="white"/>
</svg>
