<svg width="138" height="40" viewBox="0 0 138 40" fill="none" xmlns="http://www.w3.org/2000/svg">
<path d="M125.112 33.449V33.6552C125.112 33.6552 125.369 33.6263 125.103 34.1208L124.246 35.7089L124.125 35.917L123.171 34.173C123.084 34.0088 123.005 33.8586 122.878 33.727C122.667 33.5105 122.532 33.4825 122.532 33.4825H121.81V33.6636L121.935 33.6851C122.102 33.7056 122.463 34.0891 122.809 34.7049L123.639 36.1848C123.677 36.2539 123.698 36.35 123.698 36.4591V36.8604C123.698 37.1207 123.685 37.8401 123.639 37.9157C123.597 37.9838 123.518 38.0118 123.358 38.0183L123.323 38.0389V38.2432H124.708V38.0389L124.674 38.0183C124.514 38.0116 124.433 37.9838 124.392 37.9157C124.347 37.8401 124.332 37.1207 124.332 36.8604V36.5478C124.332 36.3444 124.368 36.1951 124.397 36.1111L124.578 35.7705L124.624 35.6921H124.62L125.436 34.1693C125.611 33.839 125.865 33.6552 126.078 33.6552V33.449L125.112 33.449ZM2.49194 35.0449C2.12824 35.0449 1.75181 35.1998 1.75181 35.1998L1.74671 34.0185H3.9644V33.4811L1.44575 33.469L1.44866 35.6085L1.51413 35.6515C1.7469 35.5805 1.99603 35.4536 2.28427 35.4536C2.73708 35.4536 3.45085 35.7205 3.40175 36.5687C3.35446 37.3917 2.67616 37.9105 1.72235 37.9105C1.44139 37.9105 1.31773 37.875 1.15315 37.8256L1.1122 37.9385C1.27677 38.0654 1.41407 38.1923 1.51045 38.3182C2.73068 38.3182 3.92453 37.4822 3.96636 36.4381C4.00004 35.602 3.31482 35.0449 2.49194 35.0449ZM136.273 38.0195C135.886 38.2593 135.225 38.3899 134.818 38.3899C133.215 38.3899 132.135 37.4512 132.135 35.8967C132.135 35.1082 132.435 34.4849 132.949 34.0538C133.449 33.6283 134.131 33.396 134.876 33.396C135.499 33.396 136.099 33.5602 136.419 33.675L136.285 34.2694H135.982C135.982 34.2694 136.067 33.8672 135.583 33.7263C135.366 33.6638 135.011 33.6554 134.765 33.6554C133.509 33.6554 132.849 34.6221 132.849 35.7866C132.849 37.1424 133.723 38.0195 135.045 38.0195C135.526 38.0195 136.093 37.8412 136.4 37.6089L136.46 37.6771L136.273 38.0195ZM82.7336 34.3321C82.7336 34.0727 82.7199 33.8935 82.6726 33.8189C82.6336 33.7507 82.6308 33.7218 82.4717 33.7162L82.4371 33.6948V33.4905L83.6683 33.4897V33.695L83.6328 33.7165C83.4728 33.7217 83.4664 33.751 83.4282 33.8191C83.381 33.8938 83.3673 34.0729 83.3673 34.3323V36.6884C83.3673 37.6616 83.861 37.9425 84.7412 37.9425C85.4631 37.9425 86.1169 37.6616 86.1169 36.5251V34.3323C86.1169 34.0729 86.1042 33.8938 86.0578 33.8191C86.0178 33.751 86.0114 33.7296 85.8505 33.7165L85.8414 33.695V33.4906C86.6207 33.4959 86.2879 33.4991 86.7198 33.4899V33.6952L86.7116 33.7167C86.5507 33.7297 86.5252 33.7512 86.4852 33.8193C86.4379 33.894 86.4252 34.0731 86.4252 34.3325V36.3125C86.4252 37.7784 85.8842 38.3681 84.5348 38.3681C83.4001 38.3681 82.7336 38.0182 82.7336 36.7651L82.7336 34.3321ZM110.97 34.3235C110.97 34.0632 110.957 33.8849 110.91 33.8103C110.87 33.7412 110.79 33.7207 110.629 33.7067L110.621 33.6871V33.4809C110.914 33.4876 111.377 33.4876 111.497 33.4809L114.689 37.5239H114.709V34.3234C114.709 34.0631 114.696 33.8849 114.649 33.8102C114.609 33.7412 114.528 33.7207 114.368 33.7067L114.36 33.687V33.4808C114.626 33.4875 115.071 33.4875 115.364 33.4808V33.687L115.356 33.7067C115.197 33.7206 115.116 33.7412 115.076 33.8102C115.03 33.8849 115.015 34.0631 115.015 34.3234V38.2424L114.435 38.2499L111.29 34.2413H111.276V37.3998C111.276 37.6602 111.29 37.8384 111.337 37.914C111.377 37.9821 111.457 38.0026 111.617 38.0166L111.626 38.0362V38.2424C111.333 38.2357 110.887 38.2357 110.621 38.2424V38.0362L110.629 38.0166C110.79 38.0026 110.87 37.9821 110.91 37.914C110.957 37.8384 110.97 37.6602 110.97 37.3998L110.97 34.3235ZM71.2994 34.3235C71.2994 34.0632 71.2867 33.8849 71.2403 33.8103C71.1994 33.7412 71.1194 33.7207 70.9593 33.7067L70.9503 33.6871V33.4809C71.2439 33.4876 71.7077 33.4876 71.8277 33.4809L75.0192 37.5239H75.0383V34.3234C75.0383 34.0631 75.0247 33.8849 74.9792 33.8102C74.9383 33.7412 74.8574 33.7207 74.6974 33.7067L74.6892 33.687V33.4808C74.9556 33.4875 75.4011 33.4875 75.6948 33.4808V33.687L75.6857 33.7067C75.5266 33.7206 75.4457 33.7412 75.4066 33.8102C75.3602 33.8849 75.3447 34.0631 75.3447 34.3234V38.2424L74.7637 38.2499L71.6195 34.2413H71.6068V37.3998C71.6068 37.6602 71.6195 37.8384 71.6677 37.914C71.7077 37.9821 71.7878 38.0026 71.9478 38.0166L71.956 38.0362V38.2424C71.6623 38.2357 71.2168 38.2357 70.9504 38.2424V38.0362L70.9595 38.0166C71.1195 38.0026 71.1995 37.9821 71.2404 37.914C71.2868 37.8384 71.2996 37.6602 71.2996 37.3998L71.2994 34.3235ZM93.7892 34.3548C93.7892 34.0954 93.7747 33.9162 93.7283 33.8406C93.6883 33.7725 93.6765 33.7436 93.5146 33.7371L93.4809 33.7174V33.4814H96.6934L96.586 34.0589L96.3515 34.0642V34.0119C96.3515 33.9233 96.3485 33.8272 96.2914 33.8272C95.9568 33.8272 94.6093 33.8242 94.422 33.8242V35.6829L95.905 35.6792C95.905 35.6792 95.9514 35.5401 95.9578 35.4496L95.9905 35.3871H96.1914C96.1849 35.6671 96.1714 35.6344 96.1714 35.8882C96.1714 36.1429 96.1851 36.1103 96.1914 36.3566H95.9905L95.9578 36.2446C95.9512 36.1551 95.905 36.0086 95.905 36.0086C95.905 36.0086 94.6493 36.0116 94.422 36.0116V37.93C94.6066 37.93 96.2124 37.93 96.3324 37.93C96.4451 37.93 96.5188 37.9664 96.5651 37.5549H96.7988C96.7324 37.8843 96.6934 38.2528 96.6934 38.2528L93.4746 38.2543V38.0677C93.4746 38.0677 93.6882 38.0127 93.7282 37.9445C93.7746 37.868 93.7892 37.6898 93.7892 37.4295V34.354L93.7892 34.3548ZM61.3888 34.3548C61.3888 34.0954 61.3752 33.9162 61.3288 33.8406C61.2888 33.7725 61.2761 33.7436 61.116 33.7371L61.0806 33.7174V33.4814H64.293L64.1857 34.0589L63.9521 34.0642V34.0119C63.9521 33.9233 63.9484 33.8272 63.8929 33.8272C63.5565 33.8272 62.209 33.8242 62.0235 33.8242V35.6829L63.5056 35.6792L63.592 35.3871H63.792C63.7854 35.667 63.7711 35.6344 63.7711 35.8882C63.7711 36.1429 63.7857 36.1102 63.792 36.3566H63.592L63.5056 36.0085C63.5056 36.0085 62.249 36.0115 62.0235 36.0115V37.93C62.2072 37.93 63.8129 37.93 63.932 37.93C64.0457 37.93 64.1193 37.9664 64.1657 37.5549H64.3985C64.3321 37.8842 64.293 38.2528 64.293 38.2528L61.0751 38.2543V38.0677C61.0751 38.0677 61.2888 38.0127 61.3288 37.9445C61.3752 37.868 61.3888 37.6898 61.3888 37.4294V34.354V34.3548ZM52.4392 37.4225L53.6603 34.1837C53.8003 33.8133 53.724 33.7517 53.5503 33.7368L53.4612 33.7172V33.5119H54.4277V33.7172L54.3804 33.7368C54.2413 33.7517 54.1549 33.9019 54.0222 34.2313L52.8593 37.1155C52.6992 37.5065 52.5528 37.8965 52.4319 38.3145H52.0982C51.9918 37.9105 51.8445 37.5186 51.7109 37.1836L50.4552 34.0186C50.3697 33.8002 50.2761 33.7433 50.1624 33.7368L50.1105 33.7172V33.5119H51.3653V33.7172L51.2526 33.7368C51.1253 33.7435 51.0634 33.7853 51.1244 33.9495L52.4392 37.4225ZM42.814 36.4098L41.972 34.3691L41.1246 36.4098H42.814ZM43.8623 37.3485C43.9215 37.4857 43.9951 37.6704 44.076 37.8141C44.1497 37.9447 44.2233 38.0334 44.3424 38.0474L44.4042 38.0679V38.2732H43.0785V38.0679L43.1567 38.0474C43.2968 38.0399 43.3822 37.9924 43.3822 37.9102C43.3822 37.8141 43.3077 37.6349 43.2404 37.4717L42.934 36.6841H41.0109L40.8245 37.1423C40.7645 37.2869 40.5908 37.7451 40.5908 37.8542C40.5908 37.9998 40.6318 38.0268 40.84 38.0474L40.8982 38.0679V38.2732H39.828V38.0679L39.8698 38.0474C40.0298 38.0334 40.1571 37.8897 40.2298 37.7105L41.4192 34.9365C41.6256 34.4568 41.852 33.9502 42.0329 33.4575H42.2466L43.8623 37.3485ZM25.3944 37.398C25.3944 37.6574 25.4089 37.8365 25.4544 37.9121C25.4944 37.9803 25.5071 38.0073 25.6672 38.0148L25.7026 38.0344V38.2397H24.456V38.0344L24.4914 38.0148C24.6515 38.0073 24.6597 37.9803 24.6997 37.9121C24.7469 37.8365 24.7605 37.6574 24.7605 37.398V35.8696H22.0901V37.398C22.0901 37.6574 22.1037 37.8365 22.1501 37.9121C22.1901 37.9803 22.1928 38.0073 22.3528 38.0148L22.3883 38.0344V38.2397H21.1426V38.0344L21.1772 38.0148C21.3381 38.0073 21.3554 37.9803 21.3963 37.9121C21.4427 37.8365 21.4555 37.6574 21.4555 37.398V34.3216C21.4555 34.0622 21.4427 33.884 21.3963 33.8084C21.3554 33.7393 21.3381 33.7113 21.1772 33.7048L21.1426 33.6852V33.4799L22.3883 33.4792V33.6854L22.3528 33.705C22.1928 33.7117 22.1901 33.7395 22.1501 33.8086C22.1037 33.8842 22.0901 34.0624 22.0901 34.3218V35.5423H24.7605V34.3218C24.7605 34.0624 24.7469 33.8842 24.6996 33.8086C24.6596 33.7395 24.6514 33.7115 24.4914 33.705L24.4559 33.6854V33.4801L25.7025 33.4793V33.6856L25.6671 33.7051C25.5071 33.7118 25.4944 33.7397 25.4543 33.8087C25.4089 33.8843 25.3943 34.0625 25.3943 34.3219L25.3944 37.398ZM11.7626 38.2408V38.0346V38.2408ZM11.7626 38.2408V38.0346V38.2408ZM12.1345 33.8152H11.0779C10.877 33.8152 10.8234 33.8758 10.8106 34.0401L10.5342 34.0431L10.5306 33.4785H14.3813L14.3798 34.0384L14.1016 34.0399C14.0879 33.8757 14.0352 33.815 13.8343 33.815H12.7659L12.7732 37.3981C12.7732 37.9019 12.8595 38.0344 13.1487 38.0344V38.2407L11.7626 38.2408V38.0346C12.1518 38.0346 12.1385 37.8982 12.1385 37.3981L12.1345 33.8152Z" fill="black"/>
<path d="M1.07532 1.64213V2.58735V1.64213ZM74.4488 2.51972V1.64169H71.2819C70.3326 1.64542 69.5507 1.64691 69.1133 1.64691V2.51655C70.0517 2.51655 70.088 3.02695 70.088 5.28783V23.819C70.088 26.1573 70.068 26.4662 69.1133 26.4662V27.3442H71.4237C72.4457 27.3412 74.0106 27.339 74.4488 27.339V26.4656C73.5114 26.4656 73.475 25.9589 73.475 23.6981V5.1669C73.475 2.82858 73.4941 2.51972 74.4488 2.51972ZM113.441 27.345V26.3969C114.434 26.3969 114.401 26.0069 114.401 23.8683C114.401 16.3084 114.383 15.881 114.431 4.60089C114.431 2.8756 114.44 2.57795 113.441 2.57795V1.64766H117.679C117.679 1.64766 119.389 3.97012 119.853 4.60835L123.455 9.20942L128.708 15.7784C130.389 17.8732 131.74 19.521 132.761 20.7238C133.41 21.5178 133.86 22.1439 134.301 22.6011C134.301 22.6011 134.323 6.64342 134.323 5.0553C134.323 2.75617 134.312 2.58448 133.451 2.58448V1.64766H136.925V2.57795C136.076 2.57795 136.066 2.68339 136.066 5.0637V27.344H134.267L116.158 5.42947C116.158 5.42947 116.142 22.2708 116.142 23.8935C116.142 26.0564 116.188 26.3988 117.048 26.3988V27.345H113.441ZM111.05 23.9711C110.711 25.6535 109.804 25.6432 108.363 25.6432H105.184H97.9772V14.9696H103.343C106.416 14.9696 106.651 14.974 106.651 15.9512H107.712V12.3159H106.658C106.658 13.2881 106.413 13.2881 103.222 13.2881H97.9772V7.13815C98.0008 5.96525 97.9772 4.70838 97.9772 3.36473C98.4836 3.36473 106.762 3.361 107.757 3.361C109.246 3.361 110.32 3.33114 110.32 4.46671H111.293L111.776 1.64598H96.1732H93.6655V2.5912C94.6147 2.5912 94.5974 2.81607 94.5974 5.2841C94.5974 7.75399 94.6283 22.2654 94.6283 23.8209C94.6283 25.8578 94.6147 26.399 92.3134 26.399C92.037 26.399 91.7805 26.3626 91.5314 26.2889C91.2932 26.1844 91.1095 26.0332 90.9886 25.9586C90.754 25.8139 89.782 24.9228 88.0762 23.2843L77.4852 13.1286C77.4852 13.1286 86.5969 2.59773 87.8935 2.59773C88.2926 2.59773 87.5279 2.59101 88.6472 2.59101V1.65046H85.8113L74.0091 14.4161L74.4992 14.919L82.5143 22.6385L84.3319 24.4309C86.0277 26.0974 87.2815 27.3478 87.2815 27.3478L89.9184 27.3463V27.3478H92.3179C92.9835 27.3478 92.3179 27.3463 92.3179 27.3463C95.2475 27.3463 96.0077 27.3388 96.1604 27.3388C106.245 27.3481 107.607 27.3481 108.096 27.3481C108.567 27.3481 111.776 27.3444 111.776 27.3444L112.248 23.9713L111.05 23.9711ZM47.9302 25.5014H52.161C56.7027 25.5014 58.1885 24.6701 58.9941 24.1867C59.7997 23.7043 60.578 22.9933 61.3309 22.0537C62.0828 21.1122 62.6611 19.9104 63.0666 18.4464C63.4731 16.9814 63.6758 15.4651 63.6758 13.8966C63.6758 11.6553 63.284 9.72849 62.5029 8.11891C61.7209 6.50933 60.5425 5.27765 58.9677 4.42201C57.392 3.56543 54.9697 3.33963 47.9002 3.33963C47.8684 3.9312 47.9002 14.9818 47.9002 14.9818L47.9302 25.5014ZM43.6503 27.3452V26.4663C44.6051 26.4663 44.6241 26.1574 44.6241 23.8191V5.28792C44.6241 3.02704 44.5878 2.51664 43.6503 2.51664V1.64793C45.4698 1.64793 53.2666 1.61061 54.2296 1.61061C57.1046 1.61061 59.4169 1.98758 61.1654 2.74058C62.9148 3.49452 64.3987 4.75699 65.6198 6.52986C66.8391 8.30273 67.4502 10.4656 67.4502 13.0214C67.4502 14.8549 67.1619 16.5736 66.5873 18.1758C66.0117 19.7797 65.2307 21.1812 64.2459 22.3803C63.2603 23.5802 62.2037 24.5292 61.0772 25.229C59.9506 25.9288 58.7677 26.4551 57.5293 26.8106C56.2908 27.167 54.5923 27.3452 52.4338 27.3452H43.6503ZM40.9235 23.9688C40.5843 25.6502 39.6778 25.639 38.2366 25.639H35.0569H27.8502V14.9663H33.2166C36.289 14.9663 36.5245 14.9708 36.5245 15.9479H37.4556V12.3135H36.5317C36.5317 13.2849 36.2872 13.2849 33.0957 13.2849H27.8502V7.13488C27.8747 5.96105 27.8502 4.70604 27.8502 3.36146C28.3575 3.36146 36.6354 3.35847 37.631 3.35847C39.1195 3.35847 40.1942 3.32772 40.1942 4.46419H41.1671L41.6491 1.64159H26.0471H23.5394V2.58774C24.4877 2.58774 24.4713 2.81262 24.4713 5.28157C24.4713 7.75053 24.5741 22.261 24.5741 23.8165C24.5741 25.8534 24.4877 26.3946 22.1873 26.3946C20.8925 26.3946 20.0042 25.6855 18.4775 23.3341L14.0422 17.1272C12.9511 15.6678 12.2591 14.7282 11.9654 14.3064C13.5793 13.9434 14.8896 13.4312 15.8961 12.7668C16.9036 12.1025 17.6728 11.2692 18.2029 10.2671C18.733 9.26493 18.9985 8.2572 18.9985 7.24293C18.9985 6.15588 18.7157 5.15094 18.1511 4.22718C17.5865 3.30342 16.789 2.6372 15.7597 2.22664C14.7305 1.81608 13.092 1.60986 10.8452 1.60986C10.5497 1.60986 1.55723 1.64213 1.07532 1.64213V2.58735C2.06005 2.58735 2.03996 3.38647 2.03996 5.28344C2.03996 6.85196 2.03996 23.4722 2.03996 23.725C2.03996 25.6136 2.03923 26.3974 1.0825 26.3974V27.3445H6.29256V26.3946C5.34601 26.3946 5.34601 25.5809 5.34601 23.9406C5.34601 22.3832 5.35329 3.56002 5.35329 2.90219C6.59988 2.90219 8.39748 2.90667 9.61042 2.90667C11.5417 2.90667 12.9847 3.34616 13.9376 4.22233C14.8914 5.09943 15.3697 6.36284 15.3697 7.84925C15.3697 9.55587 14.8159 10.9284 13.7121 11.9679C12.6064 13.0074 10.9843 13.5271 8.84483 13.5271C8.52751 13.5271 8.06378 13.5103 7.45276 13.473L7.27636 14.0151C8.39112 15.3289 9.56406 16.7911 10.7961 18.4034C11.559 19.3794 12.4382 20.5953 13.4357 22.0527C15.2315 24.6775 16.5099 26.4411 17.2727 27.3443L41.6491 27.334L42.1219 23.9683L40.9235 23.9688Z" fill="black"/>
</svg>
