<svg width="240" height="54" viewBox="0 0 240 54" fill="none" xmlns="http://www.w3.org/2000/svg">
<path d="M7.43558 36.0205L9.86502 17.8872H10.1595L17.227 32.7677L24.184 17.8872H24.4417L26.9448 36.0205H25.2883L23.5215 23.0842L17.411 36.0205H17.0061L10.7853 23.0094L9.09202 36.0205H7.43558Z" fill="black"/>
<path d="M41.0061 17.4761C43.6196 17.4761 45.8282 18.4108 47.5951 20.2054C49.3988 22.0001 50.2454 24.2807 50.2454 26.9727C50.2454 29.6273 49.362 31.8706 47.5951 33.74C45.865 35.6094 43.6932 36.5441 41.1534 36.5441C38.5767 36.5441 36.4049 35.6094 34.6748 33.74C32.8712 31.9453 32.0245 29.6646 32.0245 27.0849C32.0245 25.3276 32.4294 23.7199 33.2761 22.2244C34.0491 20.7662 35.1534 19.5698 36.5521 18.7473C37.8773 17.8873 39.3865 17.4761 41.0061 17.4761ZM41.0798 19.2333C39.7914 19.2333 38.6135 19.5698 37.4356 20.2428C36.2945 20.9906 35.3742 21.8879 34.7117 23.0843C34.0859 24.2433 33.7546 25.5893 33.7546 27.0475C33.7546 29.216 34.4908 31.0106 35.9264 32.4688C37.362 34.0017 39.0552 34.6747 41.0798 34.6747C42.4049 34.6747 43.6564 34.3756 44.7975 33.7026C45.9386 33.0296 46.8221 32.0949 47.4478 30.8985C48.0736 29.6646 48.4049 28.3561 48.4049 26.9353C48.4049 25.5146 48.0736 24.206 47.4478 23.0095C46.7853 21.8879 45.9386 20.9532 44.7239 20.2054C43.6196 19.5698 42.3681 19.2333 41.0798 19.2333Z" fill="black"/>
<path d="M56.1718 17.8872H59.6319C61.546 17.8872 62.8344 17.9994 63.5337 18.1489C64.6012 18.4106 65.411 18.9341 66.0736 19.7566C66.6994 20.5418 67.0307 21.5513 67.0307 22.7477C67.0307 23.7198 66.8098 24.6171 66.3313 25.3275C65.9264 26.0752 65.2638 26.6361 64.454 26.9725C63.6442 27.3464 62.4663 27.5708 61.0675 27.5708L67.2883 35.9831H65.1534L58.8957 27.5708H57.9387V36.0205H56.2086V17.8872H56.1718ZM57.9387 19.7192V25.8509L60.9202 25.8883C62.0614 25.8883 62.9448 25.7387 63.4969 25.5518C64.0491 25.2901 64.454 24.9162 64.7853 24.4302C65.1166 23.9441 65.227 23.3459 65.227 22.7851C65.227 22.1495 65.0429 21.626 64.7853 21.14C64.454 20.6539 64.0491 20.2427 63.5337 20.0557C63.0184 19.8688 62.1718 19.7566 60.9571 19.7566H57.9387V19.7192Z" fill="black"/>
<path d="M81.3865 17.4761C84 17.4761 86.2086 18.4108 87.9755 20.2054C89.7791 22.0001 90.6258 24.2807 90.6258 26.9727C90.6258 29.6273 89.7423 31.8706 88.0123 33.74C86.2086 35.6094 84.1104 36.5441 81.5337 36.5441C78.9939 36.5441 76.8221 35.6094 75.0552 33.74C73.3252 31.9453 72.4049 29.6646 72.4049 27.0849C72.4049 25.3276 72.8098 23.7199 73.6564 22.2244C74.4295 20.7662 75.5337 19.5698 76.9325 18.7473C78.2577 17.8873 79.7669 17.4761 81.3865 17.4761ZM81.4601 19.2333C80.1718 19.2333 78.9939 19.5698 77.8159 20.2428C76.6748 20.9906 75.7546 21.8879 75.092 23.0843C74.4663 24.2433 74.135 25.5893 74.135 27.0475C74.135 29.216 74.8712 31.0106 76.3068 32.4688C77.7423 34.0017 79.4356 34.6747 81.4601 34.6747C82.7853 34.6747 84.0368 34.3756 85.1779 33.7026C86.319 33.0296 87.2025 32.0949 87.8282 30.8985C88.454 29.6646 88.7853 28.3561 88.7853 26.9353C88.7853 25.5146 88.454 24.206 87.8282 23.0095C87.2025 21.8879 86.319 20.9532 85.1779 20.2054C84 19.5698 82.7485 19.2333 81.4601 19.2333Z" fill="black"/>
<path d="M112.601 21.2899L111.239 22.3741C110.503 21.3647 109.583 20.5795 108.515 20.0561C107.521 19.5326 106.307 19.2335 105.055 19.2335C103.693 19.2335 102.405 19.57 101.19 20.3178C100.049 20.9908 99.1288 21.9255 98.4662 23.1219C97.8405 24.2809 97.5092 25.6269 97.5092 27.0477C97.5092 29.2536 98.2086 31.123 99.681 32.5811C101.117 34.1141 102.957 34.8244 105.166 34.8244C107.595 34.8244 109.62 33.8149 111.239 31.8334L112.601 32.9176C111.718 34.0393 110.687 34.9366 109.399 35.5722C108.11 36.2078 106.638 36.5443 105.092 36.5443C102.074 36.5443 99.681 35.46 97.9141 33.3663C96.4417 31.609 95.7055 29.4405 95.7055 26.8981C95.7055 24.2436 96.5889 22.0003 98.3558 20.2056C100.159 18.4484 102.368 17.5137 105.018 17.5137C106.638 17.5137 108.11 17.8502 109.399 18.4858C110.724 19.1214 111.791 20.0561 112.601 21.2899Z" fill="black"/>
<path d="M134.613 21.2899L133.252 22.3741C132.515 21.3647 131.595 20.5795 130.528 20.0561C129.46 19.5326 128.319 19.2335 127.067 19.2335C125.632 19.2335 124.417 19.57 123.202 20.3178C122.025 20.9908 121.141 21.9255 120.442 23.1219C119.816 24.2809 119.485 25.6269 119.485 27.0477C119.485 29.2536 120.221 31.123 121.693 32.5811C123.129 34.1141 124.969 34.8244 127.178 34.8244C129.607 34.8244 131.632 33.8149 133.252 31.8334L134.613 32.9176C133.73 34.0393 132.699 34.9366 131.411 35.5722C130.086 36.2078 128.65 36.5443 127.067 36.5443C124.049 36.5443 121.656 35.46 119.89 33.3663C118.417 31.609 117.681 29.4405 117.681 26.8981C117.681 24.2436 118.564 22.0003 120.331 20.2056C122.061 18.4484 124.344 17.5137 126.994 17.5137C128.613 17.5137 130.086 17.8502 131.374 18.4858C132.736 19.1214 133.804 20.0561 134.613 21.2899Z" fill="black"/>
<path d="M160.748 36.0205V17.8872H161.117L172.638 31.7956V17.8872H174.368V36.0205H174L162.552 22.299V36.0205H160.748Z" fill="black"/>
<path d="M188.945 17.4761C191.558 17.4761 193.73 18.4108 195.534 20.2054C197.264 22.0001 198.147 24.2807 198.147 26.9727C198.147 29.6273 197.264 31.8706 195.534 33.74C193.804 35.6094 191.632 36.5441 189.092 36.5441C186.515 36.5441 184.344 35.6094 182.577 33.74C180.81 31.9453 179.963 29.6646 179.963 27.0849C179.963 25.3276 180.331 23.7199 181.141 22.2244C181.951 20.7662 183.018 19.5698 184.454 18.7473C185.816 17.8873 187.288 17.4761 188.945 17.4761ZM188.982 19.2333C187.693 19.2333 186.515 19.5698 185.337 20.2428C184.196 20.9906 183.313 21.8879 182.687 23.0843C182.061 24.2433 181.73 25.5893 181.73 27.0475C181.73 29.216 182.429 31.0106 183.865 32.4688C185.301 34.0017 187.031 34.6747 189.018 34.6747C190.344 34.6747 191.595 34.3756 192.736 33.7026C193.877 33.0296 194.798 32.0949 195.46 30.8985C196.049 29.6646 196.38 28.3561 196.38 26.9353C196.38 25.5146 196.049 24.206 195.46 23.0095C194.834 21.8879 193.914 20.9532 192.736 20.2054C191.521 19.5698 190.307 19.2333 188.982 19.2333Z" fill="black"/>
<path d="M204.405 17.8872H206.135V36.0205H204.405V17.8872Z" fill="black"/>
<path d="M213.497 17.8872H215.19V34.2633H221.853V36.0205H213.497V17.8872Z" fill="black"/>
<path d="M146.871 17.9619H146.466L138.258 36.0204H140.172L141.975 32.0573H151.325L153.055 36.0204H154.933L146.871 17.9619ZM142.712 30.4122L146.687 21.7381L150.589 30.4122H142.712Z" fill="black"/>
<path d="M223.877 33.852C223.877 32.5435 224.834 31.4966 226.086 31.4966C227.264 31.4966 228.294 32.5061 228.294 33.852C228.294 35.198 227.301 36.2449 226.086 36.2449C224.834 36.2449 223.877 35.1606 223.877 33.852ZM224.356 33.852C224.356 34.9363 225.129 35.7215 226.086 35.7215C227.006 35.7215 227.779 34.9363 227.779 33.852C227.779 32.8426 227.006 31.9826 226.086 31.9826C225.129 31.9826 224.356 32.8426 224.356 33.852ZM227.117 35.0859H226.564L226.049 34.1138H225.644V35.0859H225.202V32.6556H226.307C226.822 32.6556 227.19 32.7678 227.19 33.4034C227.19 33.8894 227.006 34.1512 226.601 34.1512L227.117 35.0859ZM226.27 33.6651C226.528 33.6651 226.675 33.6277 226.675 33.366C226.675 33.0669 226.417 33.0669 226.16 33.0669H225.644V33.6651H226.27Z" fill="black"/>
</svg>
