<svg width="136" height="42" viewBox="0 0 136 42" fill="none" xmlns="http://www.w3.org/2000/svg">
<g id="logo">
<path id="salon &#38; spa" fill-rule="evenodd" clip-rule="evenodd" d="M29.1 39.51C29.58 39.6767 30.08 39.76 30.6 39.76C31.2 39.76 31.69 39.6733 32.07 39.5C32.4567 39.32 32.7433 39.0867 32.93 38.8C33.1167 38.5067 33.21 38.19 33.21 37.85C33.21 37.4833 33.13 37.1867 32.97 36.96C32.8167 36.7333 32.61 36.5533 32.35 36.42C32.0967 36.28 31.8167 36.1667 31.51 36.08C31.21 35.9933 30.9067 35.9133 30.6 35.84C30.2933 35.7667 30.01 35.6833 29.75 35.59C29.4967 35.4967 29.29 35.3667 29.13 35.2C28.9767 35.0333 28.9 34.8133 28.9 34.54C28.9 34.3 28.9633 34.0867 29.09 33.9C29.2233 33.7067 29.4267 33.5533 29.7 33.44C29.9733 33.3267 30.32 33.27 30.74 33.27C31.0533 33.27 31.3767 33.3167 31.71 33.41C32.05 33.5033 32.37 33.65 32.67 33.85L32.92 33.26C32.64 33.0667 32.3067 32.9167 31.92 32.81C31.5333 32.6967 31.1433 32.64 30.75 32.64C30.1567 32.64 29.67 32.73 29.29 32.91C28.91 33.0833 28.6267 33.3167 28.44 33.61C28.26 33.8967 28.17 34.2133 28.17 34.56C28.17 34.9333 28.2467 35.2367 28.4 35.47C28.56 35.6967 28.7667 35.88 29.02 36.02C29.28 36.16 29.5633 36.2733 29.87 36.36C30.1767 36.44 30.4833 36.5167 30.79 36.59C31.0967 36.6633 31.3767 36.75 31.63 36.85C31.8833 36.9433 32.0867 37.0733 32.24 37.24C32.4 37.4067 32.48 37.6267 32.48 37.9C32.48 38.1267 32.4133 38.3333 32.28 38.52C32.1533 38.7067 31.95 38.8567 31.67 38.97C31.3967 39.0767 31.04 39.13 30.6 39.13C30.14 39.13 29.7 39.05 29.28 38.89C28.8667 38.7233 28.5367 38.52 28.29 38.28L28 38.85C28.26 39.1167 28.6267 39.3367 29.1 39.51ZM54.4022 39.76C53.8755 39.76 53.3855 39.6733 52.9322 39.5C52.4855 39.32 52.0955 39.07 51.7622 38.75C51.4355 38.4233 51.1788 38.0467 50.9922 37.62C50.8122 37.1867 50.7222 36.7133 50.7222 36.2C50.7222 35.6867 50.8122 35.2167 50.9922 34.79C51.1788 34.3567 51.4355 33.98 51.7622 33.66C52.0955 33.3333 52.4855 33.0833 52.9322 32.91C53.3788 32.73 53.8688 32.64 54.4022 32.64C54.9288 32.64 55.4155 32.73 55.8622 32.91C56.3088 33.0833 56.6955 33.33 57.0222 33.65C57.3555 33.97 57.6122 34.3467 57.7922 34.78C57.9788 35.2133 58.0722 35.6867 58.0722 36.2C58.0722 36.7133 57.9788 37.1867 57.7922 37.62C57.6122 38.0533 57.3555 38.43 57.0222 38.75C56.6955 39.07 56.3088 39.32 55.8622 39.5C55.4155 39.6733 54.9288 39.76 54.4022 39.76ZM54.4022 39.1C54.8222 39.1 55.2088 39.03 55.5622 38.89C55.9222 38.7433 56.2322 38.54 56.4922 38.28C56.7588 38.0133 56.9655 37.7067 57.1122 37.36C57.2588 37.0067 57.3322 36.62 57.3322 36.2C57.3322 35.78 57.2588 35.3967 57.1122 35.05C56.9655 34.6967 56.7588 34.39 56.4922 34.13C56.2322 33.8633 55.9222 33.66 55.5622 33.52C55.2088 33.3733 54.8222 33.3 54.4022 33.3C53.9822 33.3 53.5922 33.3733 53.2322 33.52C52.8722 33.66 52.5588 33.8633 52.2922 34.13C52.0322 34.39 51.8255 34.6967 51.6722 35.05C51.5255 35.3967 51.4522 35.78 51.4522 36.2C51.4522 36.6133 51.5255 36.9967 51.6722 37.35C51.8255 37.7033 52.0322 38.0133 52.2922 38.28C52.5588 38.54 52.8722 38.7433 53.2322 38.89C53.5922 39.03 53.9822 39.1 54.4022 39.1ZM86.2196 39.51C86.6996 39.6767 87.1996 39.76 87.7196 39.76C88.3196 39.76 88.8096 39.6733 89.1896 39.5C89.5763 39.32 89.863 39.0867 90.0496 38.8C90.2363 38.5067 90.3296 38.19 90.3296 37.85C90.3296 37.4833 90.2496 37.1867 90.0896 36.96C89.9363 36.7333 89.7296 36.5533 89.4696 36.42C89.2163 36.28 88.9363 36.1667 88.6296 36.08C88.3296 35.9933 88.0263 35.9133 87.7196 35.84C87.413 35.7667 87.1296 35.6833 86.8696 35.59C86.6163 35.4967 86.4096 35.3667 86.2496 35.2C86.0963 35.0333 86.0196 34.8133 86.0196 34.54C86.0196 34.3 86.083 34.0867 86.2096 33.9C86.343 33.7067 86.5463 33.5533 86.8196 33.44C87.093 33.3267 87.4396 33.27 87.8596 33.27C88.173 33.27 88.4963 33.3167 88.8296 33.41C89.1696 33.5033 89.4896 33.65 89.7896 33.85L90.0396 33.26C89.7596 33.0667 89.4263 32.9167 89.0396 32.81C88.653 32.6967 88.263 32.64 87.8696 32.64C87.2763 32.64 86.7896 32.73 86.4096 32.91C86.0296 33.0833 85.7463 33.3167 85.5596 33.61C85.3796 33.8967 85.2896 34.2133 85.2896 34.56C85.2896 34.9333 85.3663 35.2367 85.5196 35.47C85.6796 35.6967 85.8863 35.88 86.1396 36.02C86.3996 36.16 86.683 36.2733 86.9896 36.36C87.2963 36.44 87.603 36.5167 87.9096 36.59C88.2163 36.6633 88.4963 36.75 88.7496 36.85C89.003 36.9433 89.2063 37.0733 89.3596 37.24C89.5196 37.4067 89.5996 37.6267 89.5996 37.9C89.5996 38.1267 89.533 38.3333 89.3996 38.52C89.273 38.7067 89.0696 38.8567 88.7896 38.97C88.5163 39.0767 88.1596 39.13 87.7196 39.13C87.2596 39.13 86.8196 39.05 86.3996 38.89C85.9863 38.7233 85.6563 38.52 85.4096 38.28L85.1196 38.85C85.3796 39.1167 85.7463 39.3367 86.2196 39.51ZM93.1418 39.7V32.7H95.7618C96.3552 32.7 96.8652 32.7966 97.2918 32.99C97.7185 33.1766 98.0452 33.45 98.2718 33.81C98.5052 34.1633 98.6218 34.5933 98.6218 35.1C98.6218 35.5933 98.5052 36.02 98.2718 36.38C98.0452 36.7333 97.7185 37.0066 97.2918 37.2C96.8652 37.3933 96.3552 37.49 95.7618 37.49H93.8818V39.7H93.1418ZM95.7418 36.84H93.8818V33.34H95.7418C96.4418 33.34 96.9718 33.4933 97.3318 33.8C97.6985 34.1066 97.8818 34.54 97.8818 35.1C97.8818 35.6533 97.6985 36.0833 97.3318 36.39C96.9718 36.69 96.4418 36.84 95.7418 36.84ZM99.9504 39.7L103.15 32.7H103.88L107.08 39.7H106.3L105.464 37.83H101.557L100.72 39.7H99.9504ZM103.51 33.4652L105.195 37.23H101.826L103.51 33.4652ZM75.7829 39.76C75.3295 39.76 74.9262 39.6867 74.5729 39.54C74.2195 39.3867 73.9395 39.1767 73.7329 38.91C73.5329 38.6434 73.4329 38.3334 73.4329 37.98C73.4329 37.68 73.4995 37.4067 73.6329 37.16C73.7662 36.9067 73.9795 36.66 74.2729 36.42C74.5164 36.2198 74.8237 36.0129 75.1947 35.7995C74.9791 35.5699 74.8051 35.3701 74.6729 35.2C74.5395 35.0134 74.4462 34.8367 74.3929 34.67C74.3395 34.5034 74.3129 34.3267 74.3129 34.14C74.3129 33.84 74.3829 33.58 74.5229 33.36C74.6695 33.1334 74.8762 32.96 75.1429 32.84C75.4095 32.7134 75.7229 32.65 76.0829 32.65C76.4095 32.65 76.6929 32.7067 76.9329 32.82C77.1795 32.9267 77.3695 33.0834 77.5029 33.29C77.6429 33.4967 77.7129 33.7467 77.7129 34.04C77.7129 34.2934 77.6495 34.53 77.5229 34.75C77.4029 34.97 77.2029 35.1867 76.9229 35.4C76.7196 35.5501 76.4635 35.7142 76.1548 35.8924L78.0732 37.8679C78.2853 37.498 78.4419 37.0487 78.5429 36.52L79.1129 36.7C78.9923 37.3347 78.7901 37.8727 78.5064 38.314L79.5029 39.34L79.0929 39.81L78.1199 38.8093C77.8857 39.0568 77.62 39.2571 77.3229 39.41C76.8695 39.6434 76.3562 39.76 75.7829 39.76ZM75.2829 34.95C75.4008 35.0928 75.5593 35.2703 75.7582 35.4825C76.0392 35.3195 76.2674 35.1753 76.4429 35.05C76.6829 34.8767 76.8529 34.7134 76.9529 34.56C77.0529 34.4 77.1029 34.23 77.1029 34.05C77.1029 33.79 77.0129 33.58 76.8329 33.42C76.6595 33.26 76.4095 33.18 76.0829 33.18C75.7295 33.18 75.4562 33.27 75.2629 33.45C75.0695 33.6234 74.9729 33.85 74.9729 34.13C74.9729 34.27 74.9929 34.4034 75.0329 34.53C75.0795 34.6567 75.1629 34.7967 75.2829 34.95ZM75.5912 36.2086L77.7056 38.3832C77.5195 38.5901 77.3086 38.7557 77.0729 38.88C76.7062 39.0734 76.2895 39.17 75.8229 39.17C75.4895 39.17 75.1929 39.12 74.9329 39.02C74.6795 38.9134 74.4795 38.7667 74.3329 38.58C74.1929 38.3867 74.1229 38.1634 74.1229 37.91C74.1229 37.69 74.1729 37.49 74.2729 37.31C74.3729 37.1234 74.5429 36.9334 74.7829 36.74C74.9907 36.5771 75.2602 36.3999 75.5912 36.2086ZM60.9309 32.7V39.7H61.6709V34.0236L66.1709 39.7H66.7809V32.7H66.0509V38.3771L61.5409 32.7H60.9309ZM44.3904 32.7V39.7H49.0504V39.06H45.1304V32.7H44.3904ZM34.9023 39.7L38.1023 32.7H38.8323L42.0323 39.7H41.2523L40.4155 37.83H36.5091L35.6723 39.7H34.9023ZM40.147 37.23L38.4623 33.4652L36.7776 37.23H40.147Z" fill="white"/>
<g id="Vector">
<path d="M134.263 22.0713C133.484 22.0713 132.807 21.0726 132.231 19.0752C132.011 18.3135 131.736 16.9805 131.406 15.0762C130.543 15.1947 129.413 15.4062 128.017 15.7109L124.64 16.4092C124.216 17.5179 123.493 19.1387 122.469 21.2715C122.198 21.7454 121.83 21.9824 121.364 21.9824C121.026 21.9824 120.721 21.8597 120.45 21.6143C120.188 21.3688 120.057 21.0641 120.057 20.7002C120.057 20.2939 120.696 18.7493 121.974 16.0664C121.83 15.8464 121.758 15.5924 121.758 15.3047C121.758 14.6191 122.173 14.179 123.002 13.9844C123.967 12.1732 125.186 10.0911 126.658 7.73828C128.664 4.5306 129.912 2.92676 130.403 2.92676C131.072 2.92676 131.529 3.39225 131.774 4.32324L132.574 8.58887L134.466 17.4121L135.189 19.418C135.435 20.1035 135.558 20.5605 135.558 20.7891C135.558 21.153 135.426 21.4577 135.164 21.7031C134.902 21.9486 134.601 22.0713 134.263 22.0713ZM129.781 7.56055L126.15 13.4131C127.174 13.1507 128.728 12.8333 130.81 12.4609L129.781 7.56055Z" fill="white"/>
<path d="M118.063 4.28516C117.539 5.07227 117.111 5.89746 116.781 6.76074L115.816 9.54102L112.401 18.7705C112.004 19.8538 111.538 20.9118 111.005 21.9443C110.734 22.4521 110.353 22.7061 109.862 22.7061C109.211 22.7061 108.754 22.376 108.491 21.7158C107.467 19.1429 106.329 15.4401 105.076 10.6074L104.073 7.11621C103.574 5.35579 103.324 4.20475 103.324 3.66309C103.324 3.28223 103.46 2.96908 103.73 2.72363C103.976 2.49512 104.272 2.38086 104.619 2.38086C105.262 2.38086 105.677 2.72786 105.863 3.42188L106.333 5.63086L107.552 9.94727C108.364 13.0957 109.156 15.8083 109.926 18.085L110.002 17.8818L113.404 8.66504L114.483 5.55469C114.966 4.30208 115.478 3.35417 116.02 2.71094C116.299 2.3724 116.629 2.20312 117.01 2.20312C117.348 2.20312 117.649 2.33431 117.911 2.59668C118.182 2.85059 118.317 3.15951 118.317 3.52344C118.317 3.77734 118.233 4.03125 118.063 4.28516Z" fill="white"/>
<path d="M90.8955 22.4648C88.5088 22.4648 86.486 21.7497 84.8271 20.3193C83.0667 18.7959 82.1865 16.8324 82.1865 14.4287C82.1865 11.5003 83.054 8.83854 84.7891 6.44336C86.7272 3.78581 89.1436 2.45703 92.0381 2.45703C94.8226 2.45703 96.8919 3.08333 98.2461 4.33594C99.6595 5.63932 100.366 7.69596 100.366 10.5059C100.366 13.4342 99.5706 16.0749 97.9795 18.4277C96.1514 21.1191 93.79 22.4648 90.8955 22.4648ZM92.0381 5.05957C89.9645 5.05957 88.2083 6.09212 86.7695 8.15723C85.4408 10.0531 84.7764 12.1436 84.7764 14.4287C84.7764 16.0622 85.3815 17.391 86.5918 18.415C87.7513 19.3799 89.1859 19.8623 90.8955 19.8623C92.9521 19.8623 94.6491 18.8255 95.9863 16.752C97.1797 14.8984 97.7764 12.8164 97.7764 10.5059C97.7764 8.48307 97.3236 7.0612 96.418 6.24023C95.5547 5.45312 94.0947 5.05957 92.0381 5.05957Z" fill="white"/>
<path d="M79.5586 18.8721C79.5586 19.2783 79.4909 19.9554 79.3555 20.9033C79.2201 21.7581 78.7673 22.1855 77.9971 22.1855C77.5316 22.1855 76.9772 21.8809 76.334 21.2715C72.8893 18.013 68.9369 13.3115 64.4766 7.16699L64.4131 10.0488L64.375 12.9434C64.375 13.6458 64.3877 14.6995 64.4131 16.1045C64.4469 17.5094 64.4639 18.5674 64.4639 19.2783C64.4639 21.555 64.0238 22.6934 63.1436 22.6934C62.6781 22.6934 62.3099 22.5452 62.0391 22.249C61.7936 21.9867 61.6709 21.6735 61.6709 21.3096C61.6709 20.9541 61.6963 20.4167 61.7471 19.6973C61.8063 18.9779 61.8359 18.4404 61.8359 18.085C61.8359 17.5602 61.8529 16.7773 61.8867 15.7363C61.9206 14.6868 61.9375 13.8997 61.9375 13.375C61.9375 12.8164 61.9248 11.9743 61.8994 10.8486C61.874 9.71452 61.8613 8.86816 61.8613 8.30957C61.8613 7.77637 61.8105 6.98503 61.709 5.93555C61.6074 4.8776 61.5566 4.08203 61.5566 3.54883C61.5566 3.15951 61.7217 2.80404 62.0518 2.48242C62.3903 2.16081 62.7712 2 63.1943 2C63.6429 2 64.1973 2.49089 64.8574 3.47266C66.9648 6.62956 68.8607 9.25325 70.5449 11.3438C72.5508 13.8236 74.7513 16.1934 77.1465 18.4531C77.1719 18.0892 77.1719 17.5518 77.1465 16.8408L77.1084 15.2412C77.1084 11.5257 76.9645 8.56771 76.6768 6.36719C76.6429 6.14714 76.5286 5.7028 76.334 5.03418C76.1647 4.45866 76.0801 4.01009 76.0801 3.68848C76.0801 2.70671 76.5286 2.21582 77.4258 2.21582C78.8984 2.21582 79.6348 4.96224 79.6348 10.4551C79.6348 11.3945 79.6221 12.7995 79.5967 14.6699C79.5713 16.5319 79.5586 17.9326 79.5586 18.8721Z" fill="white"/>
<path d="M49.0771 22.0713C48.2985 22.0713 47.6214 21.0726 47.0459 19.0752C46.8258 18.3135 46.5508 16.9805 46.2207 15.0762C45.3574 15.1947 44.2275 15.4062 42.8311 15.7109L39.4541 16.4092C39.0309 17.5179 38.3073 19.1387 37.2832 21.2715C37.0124 21.7454 36.6442 21.9824 36.1787 21.9824C35.8402 21.9824 35.5355 21.8597 35.2646 21.6143C35.0023 21.3688 34.8711 21.0641 34.8711 20.7002C34.8711 20.2939 35.5101 18.7493 36.7881 16.0664C36.6442 15.8464 36.5723 15.5924 36.5723 15.3047C36.5723 14.6191 36.987 14.179 37.8164 13.9844C38.7812 12.1732 40 10.0911 41.4727 7.73828C43.4785 4.5306 44.7269 2.92676 45.2178 2.92676C45.8864 2.92676 46.3434 3.39225 46.5889 4.32324L47.3887 8.58887L49.2803 17.4121L50.0039 19.418C50.2493 20.1035 50.3721 20.5605 50.3721 20.7891C50.3721 21.153 50.2409 21.4577 49.9785 21.7031C49.7161 21.9486 49.4157 22.0713 49.0771 22.0713ZM44.5957 7.56055L40.9648 13.4131C41.9889 13.1507 43.542 12.8333 45.624 12.4609L44.5957 7.56055Z" fill="white"/>
<path d="M24.0674 22.1982C21.4352 22.1982 19.4717 21.4408 18.1768 19.9258C17.1273 18.707 16.4671 16.9043 16.1963 14.5176C16.0693 13.4427 16.0059 11.2972 16.0059 8.08105C16.0059 6.89616 16.0312 5.93978 16.082 5.21191C16.1328 4.44173 16.209 3.9043 16.3105 3.59961C16.5221 2.98177 16.903 2.67285 17.4531 2.67285C18.2318 2.67285 18.6211 3.38802 18.6211 4.81836V12.2705C18.6211 17.3994 20.4154 19.9639 24.0039 19.9639C27.3809 19.9639 29.0693 15.6475 29.0693 7.01465C29.0693 6.69303 29.0693 6.27832 29.0693 5.77051C29.0609 5.2627 29.0566 4.92415 29.0566 4.75488C29.0566 4.23014 29.1497 3.76888 29.3359 3.37109C29.5729 2.86328 29.9242 2.60938 30.3896 2.60938C31.236 2.60938 31.6592 3.18913 31.6592 4.34863C31.6592 4.69564 31.6634 5.22038 31.6719 5.92285C31.6719 6.62533 31.6719 7.15006 31.6719 7.49707C31.6719 17.2979 29.137 22.1982 24.0674 22.1982Z" fill="white"/>
<path d="M12.7305 21.1699C11.7741 21.6185 10.2718 22.0205 8.22363 22.376C6.33626 22.7061 4.7959 22.8711 3.60254 22.8711C2.74772 22.8711 2.13411 22.7399 1.76172 22.4775C1.25391 22.1221 1 21.4704 1 20.5225L1.25391 16.3203C1.47396 12.444 1.58398 8.14453 1.58398 3.42188C1.58398 3.05794 1.70247 2.74902 1.93945 2.49512C2.1849 2.24121 2.48535 2.11426 2.84082 2.11426C3.20475 2.11426 3.50521 2.24121 3.74219 2.49512C3.98763 2.74902 4.11035 3.05794 4.11035 3.42188C4.11035 8.20378 3.99609 12.554 3.76758 16.4727L3.60254 18.4023C3.53483 19.1048 3.50944 19.7269 3.52637 20.2686C5.73535 20.2939 8.52832 19.7734 11.9053 18.707C12.0492 18.6647 12.1846 18.6436 12.3115 18.6436C12.6755 18.6436 12.9801 18.7874 13.2256 19.0752C13.4372 19.3376 13.543 19.638 13.543 19.9766C13.543 20.5182 13.2721 20.916 12.7305 21.1699Z" fill="white"/>
</g>
</g>
</svg>
