<svg width="32" height="32" viewBox="0 0 32 32" fill="none" xmlns="http://www.w3.org/2000/svg">
<g id="icon/menu">
<path id="Union" fill-rule="evenodd" clip-rule="evenodd" d="M4 8.8C4 8.35817 4.33579 8 4.75 8H27.25C27.6642 8 28 8.35817 28 8.8C28 9.24183 27.6642 9.6 27.25 9.6H4.75C4.33579 9.6 4 9.24183 4 8.8ZM4 16.3C4 15.8582 4.33579 15.5 4.75 15.5H27.25C27.6642 15.5 28 15.8582 28 16.3C28 16.7418 27.6642 17.1 27.25 17.1H4.75C4.33579 17.1 4 16.7418 4 16.3ZM4.75 23C4.33579 23 4 23.3582 4 23.8C4 24.2418 4.33579 24.6 4.75 24.6L18.8125 24.6C19.2267 24.6 19.5625 24.2418 19.5625 23.8C19.5625 23.3582 19.2267 23 18.8125 23L4.75 23Z" fill="white"/>
</g>
</svg>
