<svg width="24" height="24" viewBox="0 0 24 24" fill="none" xmlns="http://www.w3.org/2000/svg">
<g id="icon/arrow">
<path id="Vector (Stroke)" fill-rule="evenodd" clip-rule="evenodd" d="M18.8772 11.877C18.8772 12.0724 18.7996 12.2598 18.6614 12.398L13.3982 17.6611C13.1105 17.9489 12.6439 17.9489 12.3562 17.6611C12.0684 17.3734 12.0684 16.9068 12.3562 16.6191L16.3615 12.6138L5.85964 12.6138C5.4527 12.6138 5.1228 12.2839 5.1228 11.877C5.1228 11.47 5.4527 11.1401 5.85964 11.1401L16.3615 11.1401L12.3562 7.13482C12.0684 6.84707 12.0684 6.38052 12.3562 6.09277C12.6439 5.80501 13.1105 5.80501 13.3982 6.09277L18.6614 11.3559C18.7996 11.4941 18.8772 11.6815 18.8772 11.877Z" fill="white"/>
</g>
</svg>
