<svg width="20" height="20" viewBox="0 0 20 20" fill="none" xmlns="http://www.w3.org/2000/svg">
<path d="M14.8222 3.13333C14.0627 2.26625 13.6441 1.1527 13.6444 0H10.2111V13.7778C10.1846 14.5234 9.86986 15.2296 9.33307 15.7477C8.79629 16.2658 8.07939 16.5555 7.33333 16.5556C5.75556 16.5556 4.44444 15.2667 4.44444 13.6667C4.44444 11.7556 6.28889 10.3222 8.18889 10.9111V7.4C4.35556 6.88889 1 9.86667 1 13.6667C1 17.3667 4.06667 20 7.32222 20C10.8111 20 13.6444 17.1667 13.6444 13.6667V6.67778C15.0367 7.67761 16.7082 8.21405 18.4222 8.21111V4.77778C18.4222 4.77778 16.3333 4.87778 14.8222 3.13333Z" fill="white"/>
</svg>
